<?xml version="1.0" standalone="no"?>
<!DOCTYPE svg PUBLIC "-//W3C//DTD SVG 20010904//EN"
 "http://www.w3.org/TR/2001/REC-SVG-20010904/DTD/svg10.dtd">
<svg version="1.0" xmlns="http://www.w3.org/2000/svg"
 width="180.000000pt" height="180.000000pt" viewBox="0 0 180.000000 180.000000"
 preserveAspectRatio="xMidYMid meet">
<metadata>
Created by potrace 1.15, written by Peter Selinger 2001-2017
</metadata>
<g transform="translate(0.000000,180.000000) scale(0.100000,-0.100000)"
fill="#000000" stroke="none">
<path d="M802 1640 c-204 -28 -388 -140 -508 -307 -246 -342 -158 -812 196
-1048 137 -91 287 -131 455 -122 270 15 509 173 625 412 57 119 74 191 74 325
0 140 -16 209 -81 340 -39 80 -60 109 -137 185 -102 102 -197 159 -324 194
-88 24 -214 33 -300 21z m543 -502 c0 -102 2 -186 5 -186 3 0 14 0 26 -1 23
-1 23 -15 2 -123 -8 -46 -15 -58 -29 -58 -11 0 -19 -6 -19 -12 0 -10 -3 -9 -9
1 -6 9 -14 -2 -26 -40 -58 -178 -181 -330 -329 -409 l-66 -35 -64 33 c-83 43
-174 126 -230 210 -43 65 -106 206 -106 238 0 9 -6 14 -12 11 -33 -12 -55 11
-66 69 -16 79 -15 114 3 114 8 0 15 6 15 13 0 9 3 9 9 -1 5 -8 6 68 3 171 l-5
186 44 4 c24 2 226 3 449 3 l405 -1 0 -187z m71 -116 c70 -19 100 -15 123 14
l20 26 7 -29 c4 -15 18 -49 32 -75 23 -41 24 -48 12 -64 -32 -37 -104 -53
-179 -38 -32 7 -32 7 -26 55 6 44 5 48 -17 51 -23 3 -23 5 -24 118 0 72 1 85
3 34 l4 -80 45 -12z m-981 2 c-5 -53 -10 -64 -25 -64 -17 0 -18 -6 -13 -48 l5
-49 -38 -6 c-22 -4 -52 -7 -67 -7 -33 0 -106 35 -113 55 -3 7 6 31 20 52 14
21 28 52 32 69 l6 31 24 -23 c26 -27 53 -29 120 -13 44 11 44 12 45 58 1 25 4
37 6 27 3 -10 2 -47 -2 -82z"/>
<path d="M483 1143 c4 -82 7 -158 7 -170 l0 -23 408 0 409 0 6 98 c4 53 7 130
7 170 l0 72 -421 0 -422 0 6 -147z"/>
<path d="M569 933 c-15 -4 -39 -56 -39 -84 0 -8 17 -26 38 -41 28 -20 42 -24
55 -16 10 5 15 13 12 18 -6 10 14 24 35 25 16 0 15 37 -1 43 -5 2 -7 8 -4 13
3 5 1 18 -5 29 -10 19 -48 25 -91 13z"/>
<path d="M850 925 c-6 -8 -16 -30 -20 -49 -8 -37 -3 -45 51 -78 25 -16 28 -15
63 14 33 27 36 34 30 61 -12 54 -25 67 -70 67 -24 0 -47 -6 -54 -15z"/>
<path d="M1126 918 c-8 -13 -16 -36 -18 -53 -2 -24 3 -33 31 -52 43 -29 53
-29 90 3 35 29 37 42 15 90 -15 31 -20 34 -60 34 -34 0 -47 -5 -58 -22z"/>
<path d="M535 743 c13 -55 73 -169 120 -231 53 -70 127 -134 198 -172 l47 -25
54 28 c71 37 158 116 207 189 43 63 94 165 105 211 l6 27 -372 0 -372 0 7 -27z"/>
</g>
</svg>
